<mxfile host="app.diagrams.net" modified="2023-05-07T04:15:29.248Z" agent="Mozilla/5.0 (Macintosh; Intel Mac OS X 10_15_7) AppleWebKit/537.36 (KHTML, like Gecko) Chrome/113.0.0.0 Safari/537.36" etag="9vQX5hRi4i31RrrJmZUA" version="21.2.9" type="github">
  <diagram name="Page-1" id="qX53JOvQzqTEsRCYqxFs">
    <mxGraphModel dx="1865" dy="666" grid="1" gridSize="10" guides="1" tooltips="1" connect="1" arrows="1" fold="1" page="1" pageScale="1" pageWidth="827" pageHeight="1169" math="0" shadow="0">
      <root>
        <mxCell id="0" />
        <mxCell id="1" parent="0" />
        <mxCell id="NKDnhciYdsfh6VeeJWnX-10" style="edgeStyle=orthogonalEdgeStyle;rounded=0;orthogonalLoop=1;jettySize=auto;html=1;" parent="1" source="NKDnhciYdsfh6VeeJWnX-1" target="NKDnhciYdsfh6VeeJWnX-2" edge="1">
          <mxGeometry relative="1" as="geometry" />
        </mxCell>
        <mxCell id="NKDnhciYdsfh6VeeJWnX-1" value="Actor" style="shape=umlActor;verticalLabelPosition=bottom;verticalAlign=top;html=1;outlineConnect=0;" parent="1" vertex="1">
          <mxGeometry x="70" y="150" width="30" height="60" as="geometry" />
        </mxCell>
        <mxCell id="NKDnhciYdsfh6VeeJWnX-11" style="edgeStyle=orthogonalEdgeStyle;rounded=0;orthogonalLoop=1;jettySize=auto;html=1;" parent="1" source="NKDnhciYdsfh6VeeJWnX-2" target="NKDnhciYdsfh6VeeJWnX-4" edge="1">
          <mxGeometry relative="1" as="geometry" />
        </mxCell>
        <mxCell id="NKDnhciYdsfh6VeeJWnX-30" style="edgeStyle=orthogonalEdgeStyle;rounded=0;orthogonalLoop=1;jettySize=auto;html=1;entryX=0;entryY=0.5;entryDx=0;entryDy=0;" parent="1" source="NKDnhciYdsfh6VeeJWnX-2" target="NKDnhciYdsfh6VeeJWnX-28" edge="1">
          <mxGeometry relative="1" as="geometry" />
        </mxCell>
        <mxCell id="NKDnhciYdsfh6VeeJWnX-2" value="Load balancer" style="ellipse;whiteSpace=wrap;html=1;" parent="1" vertex="1">
          <mxGeometry x="210" y="150" width="120" height="80" as="geometry" />
        </mxCell>
        <mxCell id="NKDnhciYdsfh6VeeJWnX-20" style="edgeStyle=orthogonalEdgeStyle;rounded=0;orthogonalLoop=1;jettySize=auto;html=1;" parent="1" source="NKDnhciYdsfh6VeeJWnX-3" target="NKDnhciYdsfh6VeeJWnX-18" edge="1">
          <mxGeometry relative="1" as="geometry">
            <mxPoint x="790" y="430" as="targetPoint" />
          </mxGeometry>
        </mxCell>
        <mxCell id="NKDnhciYdsfh6VeeJWnX-25" style="edgeStyle=orthogonalEdgeStyle;rounded=0;orthogonalLoop=1;jettySize=auto;html=1;entryX=0.567;entryY=1.074;entryDx=0;entryDy=0;entryPerimeter=0;" parent="1" source="NKDnhciYdsfh6VeeJWnX-3" target="NKDnhciYdsfh6VeeJWnX-24" edge="1">
          <mxGeometry relative="1" as="geometry" />
        </mxCell>
        <mxCell id="NKDnhciYdsfh6VeeJWnX-3" value="DB/S3&lt;br&gt;to Save" style="shape=cylinder3;whiteSpace=wrap;html=1;boundedLbl=1;backgroundOutline=1;size=15;" parent="1" vertex="1">
          <mxGeometry x="760" y="470" width="60" height="80" as="geometry" />
        </mxCell>
        <mxCell id="NKDnhciYdsfh6VeeJWnX-12" style="edgeStyle=orthogonalEdgeStyle;rounded=0;orthogonalLoop=1;jettySize=auto;html=1;exitX=1;exitY=0.5;exitDx=0;exitDy=0;" parent="1" source="NKDnhciYdsfh6VeeJWnX-4" target="NKDnhciYdsfh6VeeJWnX-7" edge="1">
          <mxGeometry relative="1" as="geometry" />
        </mxCell>
        <mxCell id="NKDnhciYdsfh6VeeJWnX-22" value="/post" style="edgeLabel;html=1;align=center;verticalAlign=middle;resizable=0;points=[];" parent="NKDnhciYdsfh6VeeJWnX-12" vertex="1" connectable="0">
          <mxGeometry x="-0.3692" y="1" relative="1" as="geometry">
            <mxPoint y="1" as="offset" />
          </mxGeometry>
        </mxCell>
        <mxCell id="NKDnhciYdsfh6VeeJWnX-4" value="Servers" style="rounded=0;whiteSpace=wrap;html=1;" parent="1" vertex="1">
          <mxGeometry x="440" y="150" width="120" height="60" as="geometry" />
        </mxCell>
        <mxCell id="NKDnhciYdsfh6VeeJWnX-15" style="edgeStyle=orthogonalEdgeStyle;rounded=0;orthogonalLoop=1;jettySize=auto;html=1;" parent="1" source="NKDnhciYdsfh6VeeJWnX-5" target="NKDnhciYdsfh6VeeJWnX-8" edge="1">
          <mxGeometry relative="1" as="geometry" />
        </mxCell>
        <mxCell id="NKDnhciYdsfh6VeeJWnX-5" value="Image compressor" style="rounded=0;whiteSpace=wrap;html=1;" parent="1" vertex="1">
          <mxGeometry x="570" y="320" width="120" height="60" as="geometry" />
        </mxCell>
        <mxCell id="NKDnhciYdsfh6VeeJWnX-23" style="edgeStyle=orthogonalEdgeStyle;rounded=0;orthogonalLoop=1;jettySize=auto;html=1;entryX=0.5;entryY=1;entryDx=0;entryDy=0;" parent="1" source="NKDnhciYdsfh6VeeJWnX-6" target="NKDnhciYdsfh6VeeJWnX-4" edge="1">
          <mxGeometry relative="1" as="geometry" />
        </mxCell>
        <mxCell id="NKDnhciYdsfh6VeeJWnX-6" value="CDN" style="whiteSpace=wrap;html=1;aspect=fixed;" parent="1" vertex="1">
          <mxGeometry x="120" y="330" width="80" height="80" as="geometry" />
        </mxCell>
        <mxCell id="NKDnhciYdsfh6VeeJWnX-13" style="edgeStyle=orthogonalEdgeStyle;rounded=0;orthogonalLoop=1;jettySize=auto;html=1;exitX=0.5;exitY=1;exitDx=0;exitDy=0;entryX=0.5;entryY=0;entryDx=0;entryDy=0;" parent="1" source="NKDnhciYdsfh6VeeJWnX-7" target="NKDnhciYdsfh6VeeJWnX-5" edge="1">
          <mxGeometry relative="1" as="geometry" />
        </mxCell>
        <mxCell id="NKDnhciYdsfh6VeeJWnX-17" style="edgeStyle=orthogonalEdgeStyle;rounded=0;orthogonalLoop=1;jettySize=auto;html=1;entryX=0.167;entryY=0;entryDx=0;entryDy=0;entryPerimeter=0;" parent="1" source="NKDnhciYdsfh6VeeJWnX-7" target="NKDnhciYdsfh6VeeJWnX-8" edge="1">
          <mxGeometry relative="1" as="geometry" />
        </mxCell>
        <mxCell id="NKDnhciYdsfh6VeeJWnX-7" value="Image duplication" style="rounded=0;whiteSpace=wrap;html=1;" parent="1" vertex="1">
          <mxGeometry x="570" y="240" width="120" height="60" as="geometry" />
        </mxCell>
        <mxCell id="NKDnhciYdsfh6VeeJWnX-16" style="edgeStyle=orthogonalEdgeStyle;rounded=0;orthogonalLoop=1;jettySize=auto;html=1;entryX=0;entryY=0;entryDx=0;entryDy=27.5;entryPerimeter=0;" parent="1" source="NKDnhciYdsfh6VeeJWnX-8" target="NKDnhciYdsfh6VeeJWnX-3" edge="1">
          <mxGeometry relative="1" as="geometry" />
        </mxCell>
        <mxCell id="NKDnhciYdsfh6VeeJWnX-8" value="Elastic search" style="shape=process;whiteSpace=wrap;html=1;backgroundOutline=1;" parent="1" vertex="1">
          <mxGeometry x="530" y="480" width="120" height="60" as="geometry" />
        </mxCell>
        <mxCell id="NKDnhciYdsfh6VeeJWnX-14" style="edgeStyle=orthogonalEdgeStyle;rounded=0;orthogonalLoop=1;jettySize=auto;html=1;entryX=0.825;entryY=1.033;entryDx=0;entryDy=0;entryPerimeter=0;" parent="1" source="NKDnhciYdsfh6VeeJWnX-9" target="NKDnhciYdsfh6VeeJWnX-4" edge="1">
          <mxGeometry relative="1" as="geometry" />
        </mxCell>
        <mxCell id="NKDnhciYdsfh6VeeJWnX-9" value="Redis" style="rounded=1;whiteSpace=wrap;html=1;" parent="1" vertex="1">
          <mxGeometry x="360" y="290" width="120" height="60" as="geometry" />
        </mxCell>
        <mxCell id="NKDnhciYdsfh6VeeJWnX-19" style="edgeStyle=orthogonalEdgeStyle;rounded=0;orthogonalLoop=1;jettySize=auto;html=1;" parent="1" source="NKDnhciYdsfh6VeeJWnX-18" target="NKDnhciYdsfh6VeeJWnX-4" edge="1">
          <mxGeometry relative="1" as="geometry">
            <mxPoint x="500" y="70" as="targetPoint" />
          </mxGeometry>
        </mxCell>
        <mxCell id="NKDnhciYdsfh6VeeJWnX-21" value="/get&lt;br&gt;" style="edgeLabel;html=1;align=center;verticalAlign=middle;resizable=0;points=[];" parent="NKDnhciYdsfh6VeeJWnX-19" vertex="1" connectable="0">
          <mxGeometry x="-0.0629" y="2" relative="1" as="geometry">
            <mxPoint as="offset" />
          </mxGeometry>
        </mxCell>
        <mxCell id="NKDnhciYdsfh6VeeJWnX-18" value="DB to fetch" style="shape=cylinder3;whiteSpace=wrap;html=1;boundedLbl=1;backgroundOutline=1;size=15;" parent="1" vertex="1">
          <mxGeometry x="760" y="20" width="60" height="80" as="geometry" />
        </mxCell>
        <mxCell id="NKDnhciYdsfh6VeeJWnX-26" style="edgeStyle=orthogonalEdgeStyle;rounded=0;orthogonalLoop=1;jettySize=auto;html=1;entryX=0.5;entryY=1;entryDx=0;entryDy=0;entryPerimeter=0;" parent="1" source="NKDnhciYdsfh6VeeJWnX-24" target="NKDnhciYdsfh6VeeJWnX-18" edge="1">
          <mxGeometry relative="1" as="geometry" />
        </mxCell>
        <mxCell id="NKDnhciYdsfh6VeeJWnX-24" value="Queue Service to&amp;nbsp;&lt;br&gt;check any changes or&lt;br&gt;always poll for changes in either of databases&lt;br&gt;" style="rounded=1;whiteSpace=wrap;html=1;" parent="1" vertex="1">
          <mxGeometry x="720" y="260" width="120" height="60" as="geometry" />
        </mxCell>
        <mxCell id="NKDnhciYdsfh6VeeJWnX-27" value="Here&amp;nbsp;&lt;br&gt;1: Load balancer: Will load balance incoming requests and&lt;br&gt;channelinze to servers for load capacity&lt;br&gt;2: Kafka Queue: will consume the server calls and manage &lt;br&gt;the server&amp;nbsp;requests&lt;br&gt;" style="text;html=1;align=center;verticalAlign=middle;resizable=0;points=[];autosize=1;strokeColor=none;fillColor=none;" parent="1" vertex="1">
          <mxGeometry x="-20" y="598" width="340" height="90" as="geometry" />
        </mxCell>
        <mxCell id="NKDnhciYdsfh6VeeJWnX-29" style="edgeStyle=orthogonalEdgeStyle;rounded=0;orthogonalLoop=1;jettySize=auto;html=1;entryX=0;entryY=0.75;entryDx=0;entryDy=0;" parent="1" source="NKDnhciYdsfh6VeeJWnX-28" target="NKDnhciYdsfh6VeeJWnX-4" edge="1">
          <mxGeometry relative="1" as="geometry" />
        </mxCell>
        <mxCell id="NKDnhciYdsfh6VeeJWnX-28" value="Kafka" style="rounded=1;whiteSpace=wrap;html=1;" parent="1" vertex="1">
          <mxGeometry x="320" y="60" width="120" height="60" as="geometry" />
        </mxCell>
        <mxCell id="U5kLuQHOlf_KjCGQI0WT-5" style="edgeStyle=orthogonalEdgeStyle;rounded=0;orthogonalLoop=1;jettySize=auto;html=1;entryX=0.5;entryY=1;entryDx=0;entryDy=0;entryPerimeter=0;" edge="1" parent="1" source="U5kLuQHOlf_KjCGQI0WT-2" target="NKDnhciYdsfh6VeeJWnX-18">
          <mxGeometry relative="1" as="geometry" />
        </mxCell>
        <mxCell id="U5kLuQHOlf_KjCGQI0WT-2" value="DB to fetch" style="shape=cylinder3;whiteSpace=wrap;html=1;boundedLbl=1;backgroundOutline=1;size=15;" vertex="1" parent="1">
          <mxGeometry x="850" y="90" width="60" height="80" as="geometry" />
        </mxCell>
        <mxCell id="U5kLuQHOlf_KjCGQI0WT-6" style="edgeStyle=orthogonalEdgeStyle;rounded=0;orthogonalLoop=1;jettySize=auto;html=1;" edge="1" parent="1" source="U5kLuQHOlf_KjCGQI0WT-3">
          <mxGeometry relative="1" as="geometry">
            <mxPoint x="790" y="220" as="targetPoint" />
          </mxGeometry>
        </mxCell>
        <mxCell id="U5kLuQHOlf_KjCGQI0WT-3" value="DB to fetch" style="shape=cylinder3;whiteSpace=wrap;html=1;boundedLbl=1;backgroundOutline=1;size=15;" vertex="1" parent="1">
          <mxGeometry x="850" y="190" width="60" height="80" as="geometry" />
        </mxCell>
        <mxCell id="U5kLuQHOlf_KjCGQI0WT-4" value="Slave DB&lt;br&gt;for heavy reads&lt;br&gt;" style="text;html=1;align=center;verticalAlign=middle;resizable=0;points=[];autosize=1;strokeColor=none;fillColor=none;" vertex="1" parent="1">
          <mxGeometry x="825" y="23" width="110" height="40" as="geometry" />
        </mxCell>
      </root>
    </mxGraphModel>
  </diagram>
</mxfile>
